<svg xmlns="http://www.w3.org/2000/svg" width="26" height="26" viewBox="0 0 26 26" fill="none"><path d="M15.3905 9.76904C15.5225 9.59846 15.6601 9.43888 15.8857 9.39486C16.3204 9.30681 16.7276 9.58745 16.7331 10.0277C16.7496 11.1282 16.7441 12.2288 16.7331 13.3293C16.7331 13.6154 16.546 13.8686 16.2764 13.9511C16.0013 14.0557 15.6876 13.9731 15.506 13.7365C15.4125 13.6209 15.3739 13.5989 15.2419 13.7035C14.7411 14.1107 14.1743 14.1822 13.5635 13.9841C12.5841 13.665 12.1824 12.9001 12.0723 11.9701C11.9568 10.9631 12.2924 10.1047 13.1949 9.57645C13.9432 9.13073 14.7026 9.16925 15.3905 9.76904ZM13.4425 11.7775C13.4535 12.0197 13.5305 12.2508 13.6736 12.4434C13.9707 12.8396 14.5375 12.9221 14.9392 12.625C15.0053 12.5754 15.0658 12.5149 15.1208 12.4434C15.429 12.0252 15.429 11.3373 15.1208 10.9191C14.9667 10.7045 14.7246 10.5779 14.466 10.5724C13.8607 10.5339 13.437 11.0017 13.4425 11.7775ZM19.2038 11.8105C19.1598 10.3964 20.0898 9.33983 21.4104 9.30131C22.8136 9.25729 23.8371 10.1983 23.8811 11.5739C23.9252 12.9661 23.0722 13.9511 21.7571 14.0832C20.3209 14.2262 19.1818 13.1862 19.2038 11.8105ZM20.585 11.6785C20.574 11.9536 20.6565 12.2233 20.8216 12.4489C21.1243 12.8451 21.6911 12.9221 22.0873 12.6139C22.1478 12.5699 22.1973 12.5149 22.2468 12.4599C22.566 12.0417 22.566 11.3373 22.2523 10.9191C22.0983 10.71 21.8561 10.5779 21.5975 10.5724C21.0032 10.5394 20.585 10.9906 20.585 11.6785ZM18.7196 10.7155C18.7196 11.5684 18.7251 12.4214 18.7196 13.2743C18.7251 13.665 18.4169 13.9896 18.0262 14.0006C17.9602 14.0006 17.8887 13.9951 17.8226 13.9786C17.5475 13.9071 17.3384 13.6154 17.3384 13.2688V8.89411C17.3384 8.63548 17.3329 8.38236 17.3384 8.12373C17.3439 7.70002 17.6135 7.42489 18.0207 7.42489C18.439 7.41938 18.7196 7.69452 18.7196 8.13474C18.7251 8.99316 18.7196 9.85709 18.7196 10.7155Z" fill="white"></path><path d="M8.1489 24.9786C6.64665 24.9786 5.13891 25.0281 3.63667 24.9731C1.85929 24.9016 0.500122 23.4103 0.500122 21.6329C0.500122 15.8936 0.511128 10.1543 0.500122 4.40945C0.500122 2.44498 2.03538 1.0748 3.80175 1.02528C5.65066 0.975753 7.50508 1.01427 9.35949 1.01427C9.39251 1.01427 9.43653 0.997764 9.45304 1.05279C9.44203 1.15184 9.34299 1.16284 9.28246 1.20136C8.19292 1.83968 7.19693 2.60456 6.36051 3.55102C4.97933 5.11379 4.02186 6.90768 3.6972 8.99321C3.12492 12.6745 4.27498 15.8001 6.87777 18.4084C7.34 18.8761 7.40053 19.2393 7.03184 19.8666C6.58612 20.6204 5.90929 21.1322 5.18844 21.5999C5.1114 21.6439 5.03436 21.699 4.95732 21.7485C4.84176 21.8475 4.9133 21.8971 5.01235 21.9411C5.03436 21.9906 5.06187 22.0346 5.09489 22.0787C5.7277 22.6399 6.3275 23.2397 6.9493 23.812C7.24095 24.0817 7.53259 24.3623 7.81323 24.6429C7.92879 24.7475 8.12138 24.7805 8.1489 24.9786Z" fill="white"></path><path d="M8.149 24.9785C8.12149 24.7859 7.92889 24.7529 7.81333 24.6373C7.53269 24.3512 7.24105 24.076 6.94941 23.8064C6.3276 23.2341 5.7278 22.6343 5.09499 22.073C5.06198 22.029 5.03446 21.985 5.01245 21.9355C6.41564 22.2106 7.78582 22.0235 9.13398 21.6108C9.59071 21.4732 10.0474 21.3357 10.5097 21.2201C10.8233 21.1376 11.1535 21.1541 11.4561 21.2641C14.9449 22.4637 18.3896 22.3537 21.7792 20.8679C23.1604 20.2571 24.4205 19.3987 25.4881 18.3257C25.5431 18.2707 25.5816 18.1881 25.6806 18.1826C25.7302 18.2597 25.7027 18.3422 25.7027 18.4247V21.6438C25.7137 23.4817 24.2389 24.9785 22.401 24.995H22.3735C20.3925 25.006 18.4116 24.995 16.4306 24.995H8.47916C8.36911 24.984 8.25905 24.9785 8.149 24.9785Z" fill="white"></path><path d="M9.00757 12.6635C9.83848 12.6635 10.6199 12.658 11.3957 12.6635C11.8305 12.669 12.0671 12.8506 12.1111 13.1973C12.1606 13.632 11.9075 13.9236 11.4343 13.9291C10.5428 13.9401 9.65689 13.9346 8.76545 13.9346C8.50682 13.9346 8.2537 13.9456 7.99507 13.9291C7.67591 13.9126 7.36226 13.8466 7.20818 13.5164C7.05411 13.1863 7.16416 12.8891 7.37326 12.6195C8.22068 11.5409 9.0736 10.4569 9.92652 9.37838C9.97605 9.31235 10.0256 9.24632 10.0751 9.18579C10.0201 9.09224 9.94303 9.13626 9.877 9.13076C9.2827 9.12526 8.68291 9.13076 8.08862 9.12526C7.95105 9.12526 7.81348 9.10875 7.68141 9.08123C7.36776 9.0097 7.17516 8.69604 7.2467 8.38789C7.29622 8.17879 7.46131 8.00821 7.67041 7.95868C7.80247 7.92566 7.94004 7.90916 8.07761 7.90916C9.05709 7.90365 10.0421 7.90365 11.0216 7.90916C11.1976 7.90365 11.3682 7.92566 11.5388 7.96969C11.913 8.09625 12.0726 8.44292 11.924 8.8061C11.7919 9.11975 11.5828 9.38939 11.3737 9.65902C10.6529 10.578 9.93203 11.4914 9.21117 12.3994C9.15064 12.4709 9.09561 12.5424 9.00757 12.6635Z" fill="white"></path><path d="M4.10441 1.03076H22.1588C24.1343 1.03076 25.7356 2.63205 25.7356 4.60753V21.2808C25.7356 23.2562 24.1343 24.8575 22.1588 24.8575H4.10441C2.12894 24.8575 0.527649 23.2562 0.527649 21.2808V4.60753C0.527649 2.63205 2.12894 1.03076 4.10441 1.03076Z" stroke="white" stroke-width="0.5" stroke-miterlimit="10"></path></svg>