<svg width="60" height="69" viewBox="0 0 60 69" fill="none" xmlns="http://www.w3.org/2000/svg">
<g id="Group">
<path id="Vector" d="M41.6896 64.8528H38.6842C34.7909 64.8528 31.3914 62.0815 30.7519 58.2403C30.7374 58.1534 30.7243 58.066 30.7126 57.9781L30.5004 56.8969H20.8227L20.6481 57.8613C20.6375 57.9512 20.6253 58.0405 20.6119 58.1293C20.0197 62.0211 16.596 64.8529 12.6601 64.8529H9.63383C8.60477 64.8529 7.71936 65.6439 7.67094 66.6719C7.6193 67.7695 8.49371 68.6757 9.57977 68.6757H41.7435C42.8296 68.6757 43.7041 67.7695 43.6523 66.6719C43.604 65.6438 42.7186 64.8528 41.6896 64.8528Z" fill="#6B5E6D"/>
<path id="Vector_2" d="M49.9656 1.51707C49.8693 1.4207 49.7636 1.33429 49.65 1.25913C49.6467 1.25699 49.6433 1.25538 49.64 1.25323C49.5878 1.21893 49.5339 1.18706 49.4787 1.15773C49.4426 1.13881 49.4053 1.12312 49.3684 1.10662C49.3456 1.09629 49.3234 1.08436 49.3002 1.07497C48.5736 0.780145 47.7096 0.927556 47.1204 1.51707L1.51686 47.1293C0.731115 47.9152 0.731115 49.1893 1.51686 49.9752C7.9874 56.4471 16.5904 60.0112 25.7413 60.0112C34.8921 60.0112 43.495 56.4469 49.9657 49.9752C56.4364 43.5034 59.9999 34.8987 59.9999 25.7462C59.9998 16.5937 56.4361 7.98895 49.9656 1.51707ZM47.1202 47.1293C41.4097 52.8409 33.817 55.9864 25.7412 55.9864C18.3396 55.9864 11.3453 53.3426 5.83243 48.5045L48.4952 5.83358C53.3324 11.3475 55.9758 18.3432 55.9758 25.7461C55.9758 33.8236 52.8306 41.4177 47.1202 47.1293Z" fill="#6B5E6D"/>
<path id="Vector_3" d="M1.52637 49.9842C7.99584 56.4502 16.5949 60.0111 25.7414 60.0111C34.8922 60.0111 43.4952 56.4468 49.9658 49.9751C56.4365 43.5033 60 34.8986 60 25.7461C60 16.598 56.4397 7.99718 49.9751 1.52637L1.52637 49.9842ZM47.1203 47.1292C41.4098 52.8408 33.8171 55.9864 25.7413 55.9864C18.3397 55.9864 11.3454 53.3425 5.83255 48.5045L48.4953 5.83349C53.3326 11.3474 55.9759 18.3431 55.9759 25.746C55.9759 33.8236 52.8308 41.4176 47.1203 47.1292Z" fill="#503A4B"/>
<path id="Vector_4" d="M25.7414 49.493C38.8539 49.493 49.4837 38.8612 49.4837 25.7461C49.4837 12.6311 38.8539 1.99921 25.7414 1.99921C12.629 1.99921 1.99921 12.6311 1.99921 25.7461C1.99921 38.8612 12.629 49.493 25.7414 49.493Z" fill="#CCEFFF"/>
<path id="Vector_5" d="M43.9522 43.9605C46.1758 41.7365 47.906 39.2031 49.1449 36.4982C49.1489 36.4888 49.1536 36.4797 49.1575 36.4702C53.496 26.9666 51.7631 15.3473 43.9562 7.53556L43.9432 7.52255C36.1574 -0.25726 24.5917 -2.00192 15.1084 2.28508C14.9842 2.32795 14.8645 2.38304 14.7512 2.44953C12.1368 3.68019 9.68785 5.37321 7.53006 7.5314C5.35792 9.70394 3.65659 12.1717 2.42418 14.8062C2.37941 14.888 2.34046 14.9729 2.30762 15.0602C-2.00849 24.5561 -0.270401 36.1539 7.52483 43.955L7.53972 43.9698C12.5594 48.9851 19.1502 51.493 25.7411 51.493C29.4056 51.493 33.0694 50.7166 36.4637 49.1662C36.4718 49.163 36.4794 49.159 36.4873 49.1556C39.1935 47.9166 41.7275 46.1855 43.9522 43.9605ZM41.1069 41.1146C39.6288 42.5946 37.9442 43.8527 36.1055 44.8498L31.1404 39.8838C32.7276 38.7908 34.3263 37.481 35.9002 35.9069C37.4678 34.3391 38.7699 32.7299 39.8529 31.1227L44.8415 36.1123C43.8445 37.9512 42.5866 39.6361 41.1069 41.1146ZM10.6502 34.1866C10.9549 31.6582 11.5947 29.2571 12.5615 26.9929L17.1054 31.5376L10.4694 38.1749C10.4358 37.027 10.4708 35.6753 10.6502 34.1866ZM38.908 24.486L34.3772 19.9543L41.0128 13.3175C41.0908 16.12 40.7515 20.1624 38.908 24.486ZM38.2721 10.3667L31.5317 17.1083L26.912 12.4877C29.2598 11.4434 31.7307 10.7738 34.3129 10.4859C35.6273 10.3392 36.9513 10.2994 38.2721 10.3667ZM28.6865 19.9542L19.9506 28.6917L14.5267 23.2667C15.6135 21.558 16.9145 19.944 18.4274 18.4307C19.9504 16.9074 21.5543 15.5969 23.2325 14.4992L28.6865 19.9542ZM13.2104 41.125L19.9506 34.3835L24.5701 39.0039C22.2224 40.0484 19.7514 40.718 17.1691 41.0059C15.8549 41.1525 14.531 41.1923 13.2104 41.125ZM22.7959 31.5376L31.5318 22.8001L36.9467 28.2161C35.9155 29.8463 34.6381 31.4775 33.0549 33.0611C31.5318 34.5844 29.928 35.8949 28.2497 36.9925L22.7959 31.5376ZM46.5183 32.0976L41.9401 27.5184C43.7532 23.8243 44.7968 19.8002 45.0077 15.6905C47.6563 20.7751 48.1593 26.695 46.5183 32.0976ZM35.5452 6.34875C35.0536 6.37447 34.5628 6.4128 34.0732 6.46371C31.2889 6.75397 27.7182 7.55286 23.9091 9.48423L19.3906 4.96491C24.7042 3.35036 30.5181 3.81164 35.5452 6.34875ZM10.3755 10.3773C11.8536 8.89731 13.5382 7.63919 15.3769 6.6421L20.3417 11.6078C18.7545 12.7009 17.1558 14.0107 15.582 15.5847C14.0144 17.1526 12.7124 18.7618 11.6294 20.3688L6.64103 15.3795C7.63795 13.5406 8.89583 11.8557 10.3755 10.3773ZM4.96411 19.3942L9.54218 23.9731C7.72898 27.6672 6.68533 31.6913 6.47457 35.8011C3.82613 30.7164 3.323 24.7966 4.96411 19.3942ZM15.936 45.1425C16.4278 45.117 16.9189 45.0788 17.4088 45.0279C20.1931 44.7377 23.7638 43.9388 27.573 42.0074L32.0917 46.527C26.7778 48.1418 20.9635 47.6803 15.936 45.1425Z" fill="#A2DAFF"/>
<path id="Vector_6" d="M42.5292 42.5377C51.798 33.267 51.801 18.2384 42.5383 8.96396L8.96191 42.5468C18.2346 51.8112 33.2604 51.8082 42.5292 42.5377Z" fill="#A2DAFF"/>
<path id="Vector_7" d="M36.4879 49.156C39.1937 47.9169 41.7278 46.1857 43.9525 43.9606C46.1761 41.7366 47.9063 39.2032 49.1451 36.4983C49.1492 36.4889 49.1539 36.4798 49.1578 36.4703C53.4953 26.9689 51.7641 15.3526 43.9617 7.54102L7.53986 43.9697L7.54012 43.97C12.5598 48.9854 19.1506 51.4932 25.7415 51.4932C29.406 51.4932 33.0698 50.7169 36.4641 49.1664C36.4722 49.1632 36.48 49.1592 36.4879 49.156ZM44.8493 17.6007C44.9249 16.9387 44.9762 16.3008 45.008 15.6908C47.6565 20.7753 48.1597 26.6952 46.5186 32.0978L41.9404 27.5187C43.4694 24.4031 44.4532 21.0486 44.8493 17.6007ZM41.013 13.3174C41.091 16.1201 40.7518 20.1625 38.9082 24.4861L34.3773 19.9544L41.013 13.3174ZM31.5321 22.8002L36.947 28.2162C35.9158 29.8464 34.6383 31.4776 33.0552 33.0612C31.5321 34.5845 29.9283 35.895 28.25 36.9926L22.7963 31.5378L31.5321 22.8002ZM13.2107 41.1251L19.9508 34.3836L24.5704 39.004C22.2226 40.0485 19.7517 40.7181 17.1693 41.006C15.8552 41.1525 14.5313 41.1924 13.2107 41.1251ZM15.9364 45.1426C16.4118 45.1176 16.9027 45.0809 17.4092 45.028C20.1935 44.7378 23.7642 43.9389 27.5735 42.0075L32.0921 46.5271C26.7782 48.1419 20.9639 47.6804 15.9364 45.1426ZM31.1407 39.8838C32.7279 38.7908 34.3266 37.481 35.9005 35.9069C37.4681 34.339 38.7701 32.7299 39.8531 31.1227L44.8418 36.1123C43.8449 37.9513 42.5871 39.6363 41.1073 41.1147C39.6292 42.5947 37.9446 43.8528 36.1059 44.8499L31.1407 39.8838Z" fill="#8FBFF9"/>
</g>
</svg>
