<svg xmlns="http://www.w3.org/2000/svg" width="16" height="22" viewBox="0 0 16 22" fill="none"><g id="Group 151"><path id="Vector" d="M7.93788 0.894043C5.8352 0.896524 3.81935 1.73291 2.33253 3.21973C0.845711 4.70655 0.00932497 6.7224 0.00684438 8.82508C0.00432599 10.5434 0.565608 12.2151 1.60459 13.5837C1.60459 13.5837 1.82089 13.8685 1.85622 13.9096L7.93788 21.0821L14.0224 13.906C14.0542 13.8678 14.2712 13.5837 14.2712 13.5837L14.2719 13.5815C15.3104 12.2135 15.8714 10.5426 15.8689 8.82508C15.8664 6.7224 15.0301 4.70655 13.5432 3.21973C12.0564 1.73291 10.0406 0.896524 7.93788 0.894043ZM7.93788 11.7091C7.36748 11.7091 6.80989 11.54 6.33561 11.2231C5.86134 10.9062 5.49169 10.4557 5.2734 9.92875C5.05512 9.40176 4.99801 8.82188 5.10929 8.26244C5.22057 7.703 5.49524 7.18911 5.89858 6.78578C6.30192 6.38244 6.8158 6.10776 7.37524 5.99648C7.93469 5.8852 8.51456 5.94232 9.04155 6.1606C9.56853 6.37889 10.019 6.74854 10.3359 7.22281C10.6528 7.69708 10.8219 8.25468 10.8219 8.82508C10.8209 9.58968 10.5168 10.3227 9.97614 10.8633C9.43549 11.404 8.70248 11.7081 7.93788 11.7091Z" fill="white"></path></g></svg>