<svg xmlns="http://www.w3.org/2000/svg" width="16" height="16" viewBox="0 0 16 16" fill="none"><path d="M14.8781 14.2872L11.4777 10.8868C12.4929 9.71887 13.0149 8.20238 12.9339 6.657C12.8528 5.11163 12.1749 3.65809 11.0431 2.60274C9.91131 1.54738 8.41398 0.972658 6.86672 0.999692C5.31946 1.02673 3.84312 1.65341 2.74887 2.74765C1.65463 3.8419 1.02795 5.31824 1.00091 6.8655C0.973878 8.41276 1.5486 9.91009 2.60396 11.0419C3.65931 12.1737 5.11285 12.8516 6.65823 12.9326C8.2036 13.0137 9.72009 12.4916 10.8881 11.4765L14.2909 14.8769C14.369 14.9552 14.4747 14.9998 14.5853 15.001C14.6402 15.001 14.6945 14.99 14.7451 14.9687C14.7956 14.9474 14.8414 14.9162 14.8797 14.8769C14.9571 14.7981 15.0003 14.6921 15 14.5817C14.9997 14.4713 14.9559 14.3655 14.8781 14.2872ZM1.84477 6.97497C1.84623 5.961 2.14826 4.97022 2.71267 4.12786C3.27708 3.28551 4.07854 2.62937 5.01576 2.2424C5.95298 1.85542 6.98388 1.75497 7.97818 1.95374C8.97247 2.15251 9.88552 2.64158 10.6019 3.35914C11.3183 4.0767 11.8059 4.99053 12.0031 5.98514C12.2003 6.97975 12.0982 8.01049 11.7097 8.94709C11.3212 9.88369 10.6638 10.6841 9.82056 11.2472C8.9773 11.8102 7.98604 12.1107 6.97207 12.1105C5.61134 12.1088 4.30696 11.5669 3.34554 10.6039C2.38413 9.64095 1.84433 8.3357 1.84477 6.97497Z" fill="#434343" stroke="#434343" stroke-width="0.4"></path></svg>