<svg xmlns="http://www.w3.org/2000/svg" width="20" height="20" viewBox="0 0 20 20" fill="none"><g id="eva:phone-call-fill"><path id="Vector" d="M10.8333 6.66667C11.4964 6.66667 12.1323 6.93006 12.6011 7.3989C13.0699 7.86774 13.3333 8.50363 13.3333 9.16667C13.3333 9.38768 13.4211 9.59964 13.5774 9.75592C13.7337 9.9122 13.9457 10 14.1667 10C14.3877 10 14.5996 9.9122 14.7559 9.75592C14.9122 9.59964 15 9.38768 15 9.16667C15 8.0616 14.561 7.00179 13.7796 6.22039C12.9982 5.43899 11.9384 5 10.8333 5C10.6123 5 10.4004 5.0878 10.2441 5.24408C10.0878 5.40036 10 5.61232 10 5.83333C10 6.05435 10.0878 6.26631 10.2441 6.42259C10.4004 6.57887 10.6123 6.66667 10.8333 6.66667Z" fill="white"></path><path id="Vector_2" d="M10.8334 3.33341C12.3804 3.33341 13.8642 3.948 14.9581 5.04196C16.0521 6.13592 16.6667 7.61965 16.6667 9.16675C16.6667 9.38776 16.7545 9.59972 16.9108 9.756C17.067 9.91228 17.279 10.0001 17.5 10.0001C17.721 10.0001 17.933 9.91228 18.0893 9.756C18.2456 9.59972 18.3334 9.38776 18.3334 9.16675C18.3334 7.17762 17.5432 5.26997 16.1367 3.86345C14.7301 2.45692 12.8225 1.66675 10.8334 1.66675C10.6123 1.66675 10.4004 1.75455 10.2441 1.91083C10.0878 2.06711 10 2.27907 10 2.50008C10 2.7211 10.0878 2.93306 10.2441 3.08934C10.4004 3.24562 10.6123 3.33341 10.8334 3.33341ZM18.125 13.2584C18.0792 13.1246 18.0001 13.0047 17.8951 12.91C17.7901 12.8152 17.6628 12.7487 17.525 12.7167L12.525 11.5751C12.3893 11.5443 12.248 11.548 12.1141 11.5859C11.9802 11.6237 11.8579 11.6945 11.7584 11.7917C11.6417 11.9001 11.6334 11.9084 11.0917 12.9417C9.29435 12.1135 7.85418 10.6675 7.03335 8.86675C8.09169 8.33342 8.10002 8.33342 8.20835 8.20842C8.30561 8.10888 8.37639 7.98657 8.41424 7.85265C8.45209 7.71873 8.45579 7.57747 8.42502 7.44175L7.28335 2.50008C7.25139 2.36233 7.1849 2.23497 7.09014 2.13001C6.99538 2.02504 6.87547 1.94592 6.74169 1.90008C6.54708 1.83057 6.34611 1.78033 6.14169 1.75008C5.93106 1.70124 5.71613 1.67333 5.50002 1.66675C4.48336 1.66675 3.50833 2.07062 2.78944 2.78951C2.07055 3.50839 1.66669 4.48342 1.66669 5.50008C1.6711 8.90234 3.02459 12.164 5.43035 14.5697C7.83612 16.9755 11.0978 18.329 14.5 18.3334C15.0034 18.3334 15.5019 18.2343 15.967 18.0416C16.4321 17.849 16.8546 17.5666 17.2106 17.2107C17.5666 16.8547 17.8489 16.4321 18.0416 15.967C18.2342 15.502 18.3334 15.0035 18.3334 14.5001C18.3336 14.288 18.3169 14.0762 18.2834 13.8667C18.2483 13.6598 18.1954 13.4562 18.125 13.2584Z" fill="white"></path></g></svg>