<svg xmlns="http://www.w3.org/2000/svg" width="37" height="37" viewBox="0 0 37 37" fill="none"><path d="M25.7687 13.6572C25.2298 13.8891 24.651 14.0458 24.0425 14.1166C24.6704 13.7517 25.1401 13.1775 25.3641 12.5011C24.7742 12.8413 24.1286 13.0808 23.4553 13.2092C23.0026 12.7397 22.4029 12.4286 21.7494 12.324C21.0959 12.2194 20.4252 12.3273 19.8413 12.6309C19.2574 12.9345 18.793 13.4168 18.5203 14.003C18.2476 14.5891 18.1818 15.2463 18.3331 15.8725C17.1378 15.8142 15.9686 15.5125 14.9011 14.9869C13.8337 14.4614 12.892 13.7238 12.1371 12.8219C11.879 13.2543 11.7306 13.7556 11.7306 14.2895C11.7303 14.7702 11.8522 15.2434 12.0854 15.6674C12.3187 16.0913 12.656 16.4528 13.0676 16.7197C12.5903 16.7049 12.1235 16.5797 11.7061 16.3544V16.392C11.706 17.0661 11.9461 17.7194 12.3857 18.2412C12.8252 18.763 13.4371 19.121 14.1175 19.2545C13.6747 19.3709 13.2104 19.388 12.7598 19.3047C12.9518 19.8847 13.3257 20.3919 13.8293 20.7553C14.3328 21.1187 14.9408 21.3201 15.5681 21.3313C14.5033 22.143 13.1882 22.5834 11.8345 22.5814C11.5947 22.5815 11.3551 22.5679 11.1169 22.5407C12.4911 23.3987 14.0906 23.8541 15.7242 23.8523C21.2543 23.8523 24.2774 19.4043 24.2774 15.5466C24.2774 15.4213 24.2742 15.2947 24.2684 15.1694C24.8564 14.7564 25.364 14.245 25.7674 13.6591L25.7687 13.6572Z" fill="white"></path><circle cx="18.4435" cy="18.3898" r="17.8146" stroke="white"></circle></svg>